<?xml version="1.0" encoding="UTF-8"?><svg id="Ebene_1" xmlns="http://www.w3.org/2000/svg" viewBox="0 0 48 48"><defs><style>.cls-1{fill:#7f0bf5;}</style></defs><path class="cls-1" d="m43.31,38.41h-7.87c-6.33,0-6.33-9.57-.3-9.57l8.1-.02c6.36-.25,6.36-9.33,0-9.59,0,0-15.63,0-15.63,0-6.4,0-6.4-9.64-.24-9.64h15.86c6.35-.25,6.37-9.33,0-9.59,0,0-22.94,0-22.94,0-2.09.03-3.62,1.17-4.47,3.03L.35,41.41c-.99,2.46.2,5.25,2.65,6.24.56.23,1.07.34,1.71.34.04,0,10.37,0,10.37,0,2.68,0,4.83-2.21,4.79-4.86,0-.59-.11-1.18-.34-1.76l-7.02-17.54c-2.08-5.96,6.39-10.28,9.59-1.7,1.08,2.67,7.98,19.79,9.21,22.86.75,1.87,2.74,3,4.46,3h7.54c6.27,0,6.17-9.34,0-9.59Z"/></svg>